<svg
  height="25"
  viewBox="0 0 131 25"
  fill="none"
  xmlns="http://www.w3.org/2000/svg"
>
  <path
    d="M20.1677 3.58757C19.328 4.26305 18.3983 4.77968 17.4143 5.11757C16.8862 4.42508 16.1844 3.93426 15.4037 3.7115C14.6231 3.48873 13.8012 3.54477 13.0494 3.87202C12.2976 4.19928 11.652 4.78197 11.2 5.54129C10.7481 6.3006 10.5115 7.19991 10.5222 8.11757V9.11757C8.98129 9.16314 7.45437 8.77338 6.07747 7.98302C4.70058 7.19265 3.51645 6.02621 2.63054 4.58757C2.63054 4.58757 -0.876881 13.5876 7.01482 17.5876C5.20896 18.9855 3.05771 19.6865 0.876831 19.5876C8.76854 24.5876 18.414 19.5876 18.414 8.08757C18.4131 7.80902 18.3897 7.53116 18.3438 7.25757C19.2387 6.25106 19.8703 4.98028 20.1677 3.58757V3.58757Z"
    stroke="black"
    strokeLinecap="round"
    strokeLinejoin="round"
  />
  <path
    d="M29.64 16.378C29.5747 16.4433 29.374 16.476 29.038 16.476C28.8047 16.5227 28.5293 16.4853 28.212 16.364L27.918 16.266L27.484 16.056C27.4467 16.056 27.4233 16.056 27.414 16.056C27.4047 16.0653 27.3813 16.056 27.344 16.028C27.288 15.9813 27.2227 15.944 27.148 15.916C26.9613 15.7853 26.8307 15.6687 26.756 15.566C26.4573 15.09 26.308 14.6933 26.308 14.376C26.308 14.3387 26.3547 14.2687 26.448 14.166C26.6347 13.942 26.868 13.83 27.148 13.83C27.26 13.8393 27.3487 13.8767 27.414 13.942L27.876 14.544C27.9507 14.6187 28.0347 14.6933 28.128 14.768L28.31 14.964L28.59 15.202C28.6273 15.2207 28.6647 15.23 28.702 15.23C28.7393 15.2487 28.842 15.272 29.01 15.3C29.1967 15.2533 29.3553 15.202 29.486 15.146C29.57 15.062 29.6447 14.9967 29.71 14.95L29.906 14.726C29.9247 14.7073 29.9573 14.6327 30.004 14.502C30.004 14.3807 30.004 14.3013 30.004 14.264C30.0133 14.2173 29.9993 14.1007 29.962 13.914C29.9527 13.886 29.8873 13.8113 29.766 13.69C29.71 13.578 29.6307 13.4567 29.528 13.326C29.472 13.27 29.2013 13.1207 28.716 12.878L28.45 12.724L28.198 12.5C28.0767 12.4627 27.904 12.3367 27.68 12.122C27.5867 12.0567 27.5167 12.0053 27.47 11.968C27.414 11.9493 27.26 11.7907 27.008 11.492C27.008 11.4733 26.9287 11.296 26.77 10.96L26.644 10.414L26.7 10.05C26.644 9.80733 26.6253 9.62533 26.644 9.504C26.6813 9.448 26.728 9.336 26.784 9.168C26.756 9.028 26.882 8.75267 27.162 8.342C27.162 8.286 27.3673 8.062 27.778 7.67L28.254 7.418L28.478 7.32C28.562 7.31067 28.674 7.29667 28.814 7.278C28.9633 7.25933 29.1827 7.25933 29.472 7.278C29.7613 7.29667 29.9433 7.334 30.018 7.39C30.0833 7.418 30.27 7.544 30.578 7.768C30.9887 8.132 31.2127 8.45867 31.25 8.748C31.4087 9.224 31.418 9.73267 31.278 10.274C31.278 10.3113 31.1473 10.386 30.886 10.498L30.536 10.484C30.2373 10.4467 29.9527 10.2927 29.682 10.022C29.6073 9.97533 29.5513 9.84467 29.514 9.63C29.5047 9.406 29.458 9.27067 29.374 9.224C29.3647 9.21467 29.3273 9.13067 29.262 8.972C29.1033 8.76667 28.996 8.664 28.94 8.664C28.8933 8.664 28.8373 8.678 28.772 8.706C28.436 8.97667 28.2587 9.28 28.24 9.616C28.1747 9.88667 28.2587 10.218 28.492 10.61C28.5947 10.7593 28.66 10.834 28.688 10.834C28.744 10.9273 28.8513 11.044 29.01 11.184L29.206 11.394L29.794 11.828L30.032 12.066L30.298 12.234C30.4473 12.2993 30.592 12.388 30.732 12.5C30.9187 12.64 31.1473 12.9013 31.418 13.284C31.474 13.368 31.5487 13.62 31.642 14.04V14.586L31.572 14.908C31.5253 14.9547 31.474 15.048 31.418 15.188C31.418 15.1973 31.3667 15.3233 31.264 15.566C31.236 15.6127 31.124 15.7107 30.928 15.86C30.648 16.084 30.3353 16.252 29.99 16.364C29.9153 16.3827 29.7987 16.3873 29.64 16.378ZM33.121 13.886C33.1396 13.858 33.1443 13.788 33.135 13.676C33.079 13.3213 33.0696 13.0833 33.107 12.962C33.0696 12.4487 33.0556 12.1453 33.065 12.052C33.0836 11.9587 33.1116 11.9073 33.149 11.898C33.1116 11.842 33.0743 11.632 33.037 11.268C33.009 10.8947 33.0043 10.6473 33.023 10.526C32.9763 10.3207 32.9856 10.1527 33.051 10.022C33.0323 10.0033 33.0183 9.92867 33.009 9.798V9.14C33.0276 8.89733 33.037 8.77133 33.037 8.762V8.454L33.121 8.006C33.093 7.95 33.1163 7.86133 33.191 7.74C33.0883 7.53467 33.1863 7.28267 33.485 6.984C33.4943 6.96533 33.6016 6.90467 33.807 6.802C33.975 6.79267 34.087 6.79267 34.143 6.802C34.2083 6.81133 34.3016 6.82067 34.423 6.83C34.5536 6.83933 34.647 6.85333 34.703 6.872C34.8803 6.928 34.969 7.082 34.969 7.334V7.586C34.9876 7.922 34.997 8.17867 34.997 8.356V8.678C34.997 8.80867 34.9876 8.88333 34.969 8.902C34.9783 8.93933 34.9783 9.028 34.969 9.168V9.42C34.941 9.71867 34.9316 9.89133 34.941 9.938L34.843 10.666C34.9083 10.7127 35.0016 10.736 35.123 10.736C35.235 10.7173 35.5523 10.7127 36.075 10.722L36.845 10.694H37.027C37.2043 10.694 37.3256 10.6707 37.391 10.624C37.391 10.4093 37.4143 10.1527 37.461 9.854C37.517 9.80733 37.531 9.602 37.503 9.238C37.503 9.20067 37.5216 9.126 37.559 9.014C37.559 8.874 37.5776 8.72 37.615 8.552C37.615 8.356 37.643 8.188 37.699 8.048C37.7643 7.908 37.811 7.79133 37.839 7.698C37.8763 7.53933 37.9836 7.404 38.161 7.292C38.413 7.10533 38.637 6.99333 38.833 6.956H39.085C39.337 7.00267 39.421 7.25 39.337 7.698C39.337 7.84733 39.2996 8.034 39.225 8.258C39.141 8.71533 39.099 9.00933 39.099 9.14C39.099 9.28933 39.0616 9.53667 38.987 9.882C39.0056 10.078 39.0056 10.204 38.987 10.26C38.9776 10.3067 38.973 10.3767 38.973 10.47C38.9543 10.6753 38.945 10.82 38.945 10.904C38.9263 11.184 38.917 11.4127 38.917 11.59C38.917 11.7673 38.903 11.9587 38.875 12.164C38.875 12.3693 38.8423 12.5747 38.777 12.78L38.735 13.718C38.735 13.7927 38.7676 14.2873 38.833 15.202C38.889 15.2673 38.9076 15.384 38.889 15.552C38.8703 15.72 38.8376 15.8367 38.791 15.902C38.7443 15.9673 38.693 16.0047 38.637 16.014C38.5903 16.0233 38.5156 16.028 38.413 16.028C38.2076 16.1587 38.035 16.21 37.895 16.182C37.7923 16.182 37.6616 16.1353 37.503 16.042C37.3443 15.9487 37.237 15.8273 37.181 15.678C37.181 15.6033 37.167 15.5193 37.139 15.426C37.1203 15.3327 37.1203 15.23 37.139 15.118C37.1576 15.006 37.1623 14.8893 37.153 14.768C37.153 14.6373 37.153 14.488 37.153 14.32L37.167 14.152C37.1483 14.1147 37.1576 14.054 37.195 13.97C37.2323 13.8767 37.237 13.8067 37.209 13.76V13.368L37.279 12.626C37.1856 12.5513 37.181 12.3927 37.265 12.15L37.293 12.038C37.181 12.066 37.0783 12.08 36.985 12.08C36.7236 12.1453 36.4343 12.178 36.117 12.178L34.857 12.15C34.857 12.2247 34.8616 12.2713 34.871 12.29C34.8523 12.4393 34.8476 12.6727 34.857 12.99V13.27C34.8663 13.522 34.871 13.8767 34.871 14.334C34.9083 14.8567 34.927 15.2207 34.927 15.426L34.913 15.524C34.913 15.608 34.9036 15.678 34.885 15.734C34.885 15.9207 34.8383 16.0467 34.745 16.112C34.661 16.1773 34.521 16.2193 34.325 16.238C34.129 16.2567 33.9516 16.2053 33.793 16.084C33.5783 15.972 33.457 15.8647 33.429 15.762C33.429 15.6967 33.4056 15.6033 33.359 15.482C33.3123 15.4073 33.2796 15.314 33.261 15.202C33.261 14.894 33.2563 14.7213 33.247 14.684C33.219 14.6467 33.205 14.5767 33.205 14.474C33.205 14.3527 33.177 14.1567 33.121 13.886ZM42.7212 12.22C42.7399 12.2013 42.8472 12.1827 43.0432 12.164C43.2486 12.136 43.4866 12.052 43.7572 11.912C43.7666 11.912 43.7619 11.8 43.7432 11.576C43.7152 11.184 43.6919 10.904 43.6732 10.736C43.6546 10.512 43.6359 10.3533 43.6172 10.26C43.6172 10.0827 43.5472 9.714 43.4072 9.154L42.7912 11.24C42.6606 11.8187 42.6092 12.1733 42.6372 12.304L42.7212 12.22ZM40.8312 12.626L40.9152 12.01C40.9152 11.8887 40.9339 11.7673 40.9712 11.646C40.9712 11.4873 41.0506 11.2493 41.2092 10.932C41.2092 10.9133 41.2512 10.792 41.3352 10.568C41.3352 10.5493 41.4239 10.274 41.6012 9.742L41.7692 9.336C41.7692 9.29867 41.7926 9.22867 41.8392 9.126C41.8859 9.014 41.9186 8.90667 41.9372 8.804C41.9652 8.692 41.9979 8.58467 42.0352 8.482C42.1659 8.23 42.2826 8.01533 42.3852 7.838C42.5812 7.46467 42.9452 7.29667 43.4772 7.334L43.9253 7.376C44.2053 7.45067 44.4199 7.53 44.5693 7.614C44.7839 7.698 44.9286 7.79133 45.0032 7.894C45.0779 7.98733 45.1106 8.146 45.1012 8.37C45.1106 8.482 45.1386 8.96733 45.1853 9.826C45.2319 10.6847 45.2553 11.1187 45.2553 11.128L45.3252 11.73C45.3252 11.786 45.4279 12.458 45.6333 13.746L45.9412 14.726C46.1279 15.2487 46.2259 15.524 46.2352 15.552C46.2539 15.5707 46.2959 15.6687 46.3612 15.846C46.4639 16.154 46.3753 16.3593 46.0953 16.462C45.8432 16.4993 45.6566 16.476 45.5353 16.392C45.4886 16.392 45.3812 16.35 45.2133 16.266C45.1946 16.2193 45.1386 16.1727 45.0452 16.126C44.9612 16.0887 44.9052 16.056 44.8772 16.028C44.7746 16 44.6812 15.8553 44.5972 15.594C44.5692 15.5753 44.5179 15.5007 44.4433 15.37C44.3779 15.2393 44.3593 15.132 44.3872 15.048C44.3219 14.964 44.2892 14.7913 44.2892 14.53C44.2052 14.39 44.1632 14.1707 44.1632 13.872C44.1632 13.5733 44.1166 13.34 44.0233 13.172C43.5472 13.3867 43.0386 13.5033 42.4972 13.522C42.3946 13.522 42.3432 13.5407 42.3432 13.578C42.3432 13.662 42.3152 13.8113 42.2592 14.026L42.0212 15.566C42.1146 16.2567 42.0306 16.6207 41.7692 16.658C41.6946 16.658 41.5686 16.6767 41.3912 16.714C41.2232 16.7513 41.0832 16.7187 40.9712 16.616C40.7566 16.4947 40.6026 16.3687 40.5092 16.238C40.4252 16.1167 40.3879 15.9767 40.3972 15.818C40.4066 15.6873 40.4299 15.4073 40.4672 14.978C40.4859 14.9593 40.4906 14.8567 40.4812 14.67C40.4812 14.474 40.4952 14.3247 40.5232 14.222L40.7472 13.354C40.7752 13.3353 40.8126 13.1953 40.8592 12.934C40.8499 12.9153 40.8452 12.8687 40.8452 12.794L40.8312 12.626ZM49.5924 9.728C49.5924 9.91467 49.5271 10.428 49.3964 11.268L49.3544 11.464C49.3917 11.4453 49.4664 11.38 49.5784 11.268C49.7557 11.1093 50.0357 10.918 50.4184 10.694L50.6284 10.54L51.0624 10.358L51.5384 10.064C51.5197 10.0453 51.5431 9.99867 51.6084 9.924C51.7951 9.60667 51.9071 9.34067 51.9444 9.126C51.9444 8.99533 51.9257 8.902 51.8884 8.846C51.8604 8.78067 51.7484 8.73867 51.5524 8.72C51.5244 8.692 51.4357 8.664 51.2864 8.636C50.9131 8.608 50.6004 8.64067 50.3484 8.734H50.2364L50.0264 8.79H49.7884L49.7184 9.168C49.7184 9.18667 49.6951 9.28 49.6484 9.448C49.6484 9.52267 49.6297 9.616 49.5924 9.728ZM47.5764 12.682C47.6044 12.598 47.6511 12.2993 47.7164 11.786L47.9824 10.218C48.0011 10.1807 48.0244 10.0827 48.0524 9.924C48.0524 9.82133 48.0617 9.71867 48.0804 9.616C48.1084 9.504 48.1224 9.31267 48.1224 9.042L47.9544 8.93L47.6884 8.804C47.5764 8.748 47.4597 8.65933 47.3384 8.538C47.2917 8.51 47.2777 8.44 47.2964 8.328C47.3151 8.20667 47.3851 8.11333 47.5064 8.048C47.5344 8.048 47.6324 8.01533 47.8004 7.95C47.8564 7.95 47.9497 7.908 48.0804 7.824C48.1084 7.824 48.1924 7.782 48.3324 7.698L48.9484 7.474C48.9951 7.474 49.0697 7.45067 49.1724 7.404C49.2844 7.35733 49.3964 7.32933 49.5084 7.32L50.0544 7.278C50.3344 7.23133 50.5771 7.24533 50.7824 7.32C50.9224 7.32 51.0531 7.348 51.1744 7.404C51.2584 7.404 51.3844 7.43667 51.5524 7.502C51.6737 7.52067 51.7997 7.572 51.9304 7.656C51.9957 7.656 52.0564 7.67467 52.1124 7.712C52.2244 7.796 52.3411 7.866 52.4624 7.922L52.7984 8.216C52.9851 8.36533 53.1577 8.57067 53.3164 8.832C53.4937 9.01867 53.4891 9.29867 53.3024 9.672C53.2931 9.728 53.2557 9.81667 53.1904 9.938C52.9104 10.5073 52.3971 11.072 51.6504 11.632L51.2304 11.8L50.5304 12.206C50.6144 12.3367 50.7871 12.584 51.0484 12.948L52.1684 14.39L52.3224 14.656L52.6864 15.09C52.7144 15.1553 52.7937 15.2347 52.9244 15.328L53.1484 15.566C53.3537 15.7433 53.4331 15.9393 53.3864 16.154C53.3491 16.3687 53.2184 16.476 52.9944 16.476L52.6584 16.434L51.9864 16.224L51.7624 16C51.5571 15.8973 51.3984 15.79 51.2864 15.678C51.1837 15.5567 51.0344 15.4027 50.8384 15.216C50.6704 15.104 50.4417 14.8753 50.1524 14.53C50.1524 14.5207 50.1244 14.446 50.0684 14.306C49.9564 14.2127 49.8584 14.0027 49.7744 13.676C49.7651 13.6667 49.7511 13.648 49.7324 13.62C49.7137 13.592 49.6811 13.55 49.6344 13.494C49.5971 13.4287 49.5691 13.3727 49.5504 13.326C49.4944 13.074 49.3964 12.8547 49.2564 12.668H49.2004C49.2004 12.724 49.1817 12.8033 49.1444 12.906V13.186L49.0324 13.998L48.8364 15.006C48.8364 15.034 48.8224 15.0947 48.7944 15.188C48.7757 15.2813 48.7664 15.3373 48.7664 15.356C48.7757 15.3653 48.7804 15.4167 48.7804 15.51C48.7804 15.594 48.7711 15.664 48.7524 15.72C48.7524 15.7947 48.7244 15.916 48.6684 16.084C48.6217 16.252 48.5471 16.3593 48.4444 16.406C48.3511 16.462 48.1737 16.4667 47.9124 16.42C47.8191 16.3827 47.6931 16.2473 47.5344 16.014C47.4597 15.986 47.3711 15.832 47.2684 15.552C47.2871 15.384 47.2964 15.2813 47.2964 15.244C47.2964 15.2067 47.2917 15.1553 47.2824 15.09C47.2917 14.922 47.3011 14.782 47.3104 14.67V14.572C47.3104 14.5533 47.3151 14.53 47.3244 14.502C47.3337 14.4647 47.3431 14.4133 47.3524 14.348C47.3711 14.2733 47.3897 14.2127 47.4084 14.166C47.4271 14.0913 47.4364 13.984 47.4364 13.844C47.4364 13.704 47.4691 13.5687 47.5344 13.438C47.5344 13.3167 47.5484 13.0647 47.5764 12.682ZM57.0427 7.334L57.2947 7.222C57.3227 7.222 57.3647 7.208 57.4207 7.18C57.626 7.08667 57.892 7.01667 58.2187 6.97C58.2747 6.89533 58.382 6.91867 58.5407 7.04C58.6154 7.07733 58.662 7.096 58.6807 7.096C58.7087 7.096 58.7507 7.13333 58.8067 7.208C58.872 7.27333 58.914 7.32933 58.9327 7.376L59.0867 7.502C59.1987 7.56733 59.264 7.62333 59.2827 7.67C59.3014 7.70733 59.3014 7.782 59.2827 7.894C59.2734 7.99667 59.2314 8.09467 59.1567 8.188C59.0914 8.272 59.0214 8.328 58.9467 8.356C58.6294 8.47733 58.4147 8.538 58.3027 8.538C58.1907 8.538 58.0554 8.58467 57.8967 8.678C57.738 8.77133 57.6074 8.82733 57.5047 8.846C57.402 8.86467 57.3227 8.888 57.2667 8.916C57.22 8.944 57.15 8.99067 57.0567 9.056C56.8327 9.18667 56.6134 9.27067 56.3987 9.308C56.4174 9.308 56.408 9.35467 56.3707 9.448C56.3334 9.54133 56.3007 9.66733 56.2727 9.826C56.2447 9.97533 56.1934 10.1527 56.1187 10.358L55.9507 11.114C55.9134 11.282 55.9087 11.366 55.9367 11.366C55.9647 11.366 55.988 11.3473 56.0067 11.31C56.52 11.1047 56.8234 10.9507 56.9167 10.848C57.0194 10.736 57.1687 10.6893 57.3647 10.708L57.5327 10.666C57.5607 10.638 57.6214 10.624 57.7147 10.624C57.8827 10.5773 58.102 10.6893 58.3727 10.96L58.3307 11.114C58.284 11.2073 58.2094 11.31 58.1067 11.422C58.004 11.534 57.92 11.604 57.8547 11.632C57.7987 11.66 57.7567 11.6833 57.7287 11.702C57.7007 11.7113 57.682 11.716 57.6727 11.716H57.6447C57.5887 11.772 57.528 11.8187 57.4627 11.856C57.388 11.9307 57.3134 11.9867 57.2387 12.024C57.164 12.0613 57.094 12.1033 57.0287 12.15C56.9634 12.1873 56.912 12.2153 56.8747 12.234C56.8467 12.2527 56.8094 12.276 56.7627 12.304C56.716 12.332 56.66 12.3647 56.5947 12.402C56.5387 12.4393 56.5014 12.458 56.4827 12.458C56.464 12.458 56.3614 12.542 56.1747 12.71C56.1187 12.71 56.0394 12.6867 55.9367 12.64C55.834 12.584 55.7594 12.528 55.7127 12.472C55.6567 12.472 55.6474 12.598 55.6847 12.85C55.6847 12.8967 55.666 13.0133 55.6287 13.2C55.5914 13.5453 55.5867 13.8907 55.6147 14.236C55.6427 14.5813 55.6847 14.7913 55.7407 14.866C55.7967 14.9407 55.8574 14.978 55.9227 14.978C56.0627 14.95 56.17 14.9127 56.2447 14.866C56.3194 14.81 56.3894 14.7773 56.4547 14.768C56.52 14.7587 56.59 14.7213 56.6647 14.656C56.7487 14.5907 56.8094 14.558 56.8467 14.558C56.8934 14.558 57.0287 14.446 57.2527 14.222C57.2807 14.1753 57.3414 14.1287 57.4347 14.082C57.5374 14.026 57.5887 13.984 57.5887 13.956C57.6074 13.9187 57.6727 13.8673 57.7847 13.802C57.906 13.7273 58.046 13.6807 58.2047 13.662C58.3727 13.634 58.4987 13.6433 58.5827 13.69C58.732 13.774 58.914 13.9233 59.1287 14.138C59.1754 14.2127 59.1707 14.376 59.1147 14.628C59.068 14.8707 58.9887 15.048 58.8767 15.16L58.7507 15.286C58.592 15.4727 58.3587 15.6687 58.0507 15.874C57.808 16.0047 57.682 16.07 57.6727 16.07C57.6167 16.1167 57.584 16.1447 57.5747 16.154C57.528 16.238 57.486 16.2707 57.4487 16.252C57.4207 16.2333 57.3367 16.2333 57.1967 16.252C57.066 16.2707 56.9494 16.2707 56.8467 16.252C56.7907 16.224 56.7207 16.21 56.6367 16.21C56.5527 16.2567 56.24 16.098 55.6987 15.734C55.624 15.678 55.5727 15.65 55.5447 15.65C55.5167 15.65 55.456 15.6407 55.3627 15.622C55.288 15.5847 55.1994 15.5427 55.0967 15.496C54.7887 15.3187 54.6067 15.1973 54.5507 15.132C54.4947 15.0667 54.4294 15.0107 54.3547 14.964C54.28 14.9173 54.238 14.866 54.2287 14.81C54.2194 14.754 54.1914 14.6933 54.1447 14.628C54.1447 14.6093 54.1167 14.5253 54.0607 14.376C53.986 14.2547 53.9627 14.166 53.9907 14.11C54 14.054 53.9954 14.012 53.9767 13.984C53.958 13.9467 53.9394 13.676 53.9207 13.172C53.902 12.6587 53.9114 12.3787 53.9487 12.332C53.986 12.2853 54.0047 12.1733 54.0047 11.996C53.986 11.828 54.0094 11.702 54.0747 11.618C54.1494 11.534 54.182 11.4267 54.1727 11.296C54.1634 11.156 54.1774 11.0487 54.2147 10.974C54.252 10.9367 54.2847 10.792 54.3127 10.54L54.3687 10.288C54.4807 10.064 54.5367 9.91467 54.5367 9.84C54.5367 9.756 54.5554 9.658 54.5927 9.546C54.602 9.52733 54.658 9.36867 54.7607 9.07L54.8587 8.874L54.9007 8.706C55.134 8.23 55.2787 7.95467 55.3347 7.88C55.3347 7.84267 55.3954 7.67 55.5167 7.362C55.5074 7.222 55.582 7.124 55.7407 7.068C55.8994 7.00267 56.044 7.00733 56.1747 7.082C56.3147 7.15667 56.3987 7.208 56.4267 7.236C56.4547 7.264 56.5107 7.30133 56.5947 7.348C56.6227 7.39467 56.772 7.39 57.0427 7.334ZM64.9426 12.43C64.9986 13.102 65.0266 13.522 65.0266 13.69C65.1946 14.2127 65.428 14.5767 65.7266 14.782C65.7546 14.81 65.862 14.8567 66.0486 14.922L66.4126 14.992C66.4686 14.992 66.5153 14.9733 66.5526 14.936C66.5993 14.9267 66.646 14.8987 66.6926 14.852C66.758 14.768 66.8233 14.6933 66.8886 14.628C66.954 14.5627 66.9773 14.53 66.9586 14.53C66.996 14.4927 67.01 14.432 67.0006 14.348C67.0193 14.3293 67.0566 14.264 67.1126 14.152C67.1966 13.6293 67.2853 13.2933 67.3786 13.144C67.3973 12.668 67.4066 12.4067 67.4066 12.36C67.3973 11.9493 67.276 11.4687 67.0426 10.918C66.9493 10.8247 66.8793 10.414 66.8326 9.686C66.7766 9.546 66.744 9.42467 66.7346 9.322C66.7253 9.21 66.688 9.084 66.6226 8.944C66.5666 8.804 66.5246 8.71067 66.4966 8.664C66.4686 8.61733 66.45 8.58 66.4406 8.552C66.422 8.39333 66.352 8.29533 66.2306 8.258C66.0906 8.202 65.9133 8.37 65.6986 8.762L65.5866 8.944C65.5773 8.99067 65.54 9.07 65.4746 9.182C65.4746 9.20067 65.4326 9.378 65.3486 9.714C65.274 10.0407 65.2226 10.26 65.1946 10.372C65.1666 10.484 65.1573 10.5587 65.1666 10.596C65.176 10.6333 65.1293 10.8247 65.0266 11.17V11.492C65.036 11.5107 65.022 11.6087 64.9846 11.786C64.9566 11.954 64.9426 12.1687 64.9426 12.43ZM64.5086 7.46C64.518 7.41333 64.616 7.334 64.8026 7.222C64.9986 7.11 65.1666 7.026 65.3066 6.97C65.6986 6.82067 66.2073 6.83 66.8326 6.998C66.9446 7.026 67.094 7.10533 67.2806 7.236C67.2993 7.236 67.3226 7.24533 67.3506 7.264C67.4533 7.32 67.5233 7.35733 67.5606 7.376C67.7193 7.46 67.8873 7.65133 68.0646 7.95C68.2513 8.24867 68.3493 8.45867 68.3586 8.58C68.3773 8.692 68.4333 8.89267 68.5266 9.182C68.6666 9.518 68.7366 9.77933 68.7366 9.966C68.746 10.1433 68.7786 10.372 68.8346 10.652C68.9 10.9227 68.928 11.1327 68.9186 11.282C68.9186 12.5793 68.788 13.536 68.5266 14.152C68.4706 14.572 68.3726 14.838 68.2326 14.95C68.1673 15.4167 67.99 15.72 67.7006 15.86C67.6726 15.888 67.4813 15.9393 67.1266 16.014C66.5853 16.126 66.2073 16.1913 65.9926 16.21C65.7873 16.238 65.5633 16.2193 65.3206 16.154C65.0873 16.0887 64.938 16.0513 64.8726 16.042C64.8073 16.042 64.6953 15.9953 64.5366 15.902C64.21 15.706 64.0186 15.5473 63.9626 15.426L63.8226 15.202C63.0386 15.734 63.0153 15.6827 63.7526 15.048C63.6406 14.9453 63.5426 14.768 63.4586 14.516C63.4213 14.32 63.3746 14.18 63.3186 14.096C63.2626 13.9747 63.216 13.8673 63.1786 13.774C63.188 13.7087 63.1926 13.592 63.1926 13.424L63.1786 13.284C63.132 13.1347 63.1366 12.9993 63.1926 12.878C63.202 12.8127 63.2066 12.738 63.2066 12.654C63.2066 12.57 63.216 12.4207 63.2346 12.206L63.2206 12.024C63.2953 11.7627 63.328 11.576 63.3186 11.464C63.3093 11.3427 63.3186 11.1747 63.3466 10.96C63.3746 10.7453 63.384 10.582 63.3746 10.47C63.3746 10.3487 63.3933 10.2413 63.4306 10.148C63.468 10.0453 63.4913 9.98 63.5006 9.952C63.5006 9.93333 63.51 9.90067 63.5286 9.854C63.51 9.62067 63.5706 9.40133 63.7106 9.196C63.832 8.888 63.8973 8.71067 63.9066 8.664L64.0886 8.258C64.2286 7.894 64.3686 7.628 64.5086 7.46ZM74.6906 12.864C74.6719 12.8173 74.6672 12.738 74.6766 12.626C74.6952 12.514 74.7139 12.3647 74.7326 12.178C74.7326 11.8887 74.7372 11.7113 74.7466 11.646L74.7326 11.366C74.7326 11.2167 74.7372 11.0907 74.7466 10.988V10.582C74.7652 10.498 74.7652 10.358 74.7466 10.162C74.7372 9.966 74.7466 9.71867 74.7746 9.42C74.8026 9.112 74.8259 8.92533 74.8446 8.86V8.58C74.8446 8.552 74.8492 8.454 74.8586 8.286V8.188C74.8679 8.048 74.8632 7.964 74.8446 7.936L74.9706 7.418L75.0266 7.124C75.0452 7.08667 75.1152 7.00733 75.2366 6.886C75.2646 6.858 75.3719 6.844 75.5586 6.844C75.7452 6.844 75.8852 6.84867 75.9786 6.858C76.0719 6.86733 76.1326 6.89533 76.1606 6.942C76.1886 6.97933 76.2166 7.06333 76.2446 7.194C76.3006 7.31533 76.3146 7.46933 76.2866 7.656C76.2959 7.712 76.3006 7.754 76.3006 7.782V7.922C76.3286 8.10867 76.3239 8.3 76.2866 8.496C76.2866 8.57067 76.2912 8.64533 76.3006 8.72V8.846C76.3006 9.03267 76.2866 9.196 76.2586 9.336V9.686C76.2679 9.80733 76.2539 9.924 76.2166 10.036C76.2166 10.0733 76.2119 10.1853 76.2026 10.372C76.1839 10.4373 76.1652 10.5167 76.1466 10.61C76.1746 10.6847 76.1746 10.7827 76.1466 10.904C76.1186 10.932 76.1279 11.044 76.1746 11.24C76.1372 11.3613 76.1419 11.5807 76.1886 11.898V12.178C76.2166 12.4767 76.2119 12.7707 76.1746 13.06V13.144C76.1746 13.3307 76.1652 13.466 76.1466 13.55C76.1652 13.7087 76.1652 13.9093 76.1466 14.152V14.236L76.1186 14.572C76.0159 15.2347 75.7172 15.6127 75.2226 15.706C74.6159 15.818 74.1352 15.6547 73.7806 15.216L73.6966 15.006C73.5939 14.9873 73.4586 14.7727 73.2906 14.362C73.0292 13.7367 72.8846 13.3913 72.8566 13.326C72.7259 12.962 72.6606 12.766 72.6606 12.738L72.6326 12.472C72.6232 12.4533 72.6046 12.416 72.5766 12.36C72.5486 12.304 72.5252 12.248 72.5066 12.192C72.5066 12.1267 72.4739 11.9867 72.4086 11.772C72.4086 11.7533 72.3852 11.6367 72.3386 11.422L72.1706 10.176C72.1706 10.148 72.1659 10.1013 72.1566 10.036L72.1006 10.344C72.0352 10.9693 71.9886 11.3473 71.9606 11.478L71.8906 12.892V13.452L71.8486 14.138C71.8486 14.4833 71.8626 14.8053 71.8906 15.104C71.8812 15.3747 71.8299 15.5567 71.7366 15.65C71.6432 15.734 71.5032 15.7807 71.3166 15.79C71.1859 15.7527 71.0086 15.6827 70.7846 15.58C70.7192 15.5427 70.6726 15.468 70.6446 15.356C70.6259 15.2347 70.5746 15.132 70.4906 15.048C70.4066 14.964 70.3599 14.8707 70.3506 14.768L70.1826 13.704C70.1826 13.5547 70.1872 13.4007 70.1966 13.242C70.2152 13.074 70.2152 12.9013 70.1966 12.724C70.1872 12.5467 70.2106 12.3413 70.2666 12.108C70.3319 11.8747 70.3599 11.6787 70.3506 11.52C70.3412 11.352 70.3506 11.142 70.3786 10.89C70.4066 10.6287 70.4206 10.442 70.4206 10.33C70.4206 10.2087 70.4346 10.1153 70.4626 10.05C70.4626 9.90067 70.4719 9.784 70.4906 9.7C70.4812 9.672 70.5092 9.532 70.5746 9.28C70.5746 9.21467 70.5886 9.11667 70.6166 8.986C70.6446 8.85533 70.6726 8.678 70.7006 8.454C70.7286 8.23 70.7799 8.048 70.8546 7.908C70.9292 7.768 71.0459 7.60933 71.2046 7.432C71.2886 7.38533 71.3632 7.264 71.4286 7.068C71.4939 6.97467 71.6152 6.886 71.7926 6.802C71.8579 6.75533 71.9419 6.732 72.0446 6.732C72.1566 6.732 72.2592 6.76467 72.3526 6.83C72.7166 6.97 72.9406 7.21733 73.0246 7.572L73.0806 7.922C73.0806 7.978 73.1226 8.104 73.2066 8.3C73.2066 8.39333 73.2252 8.52867 73.2626 8.706C73.2626 8.83667 73.2952 8.972 73.3606 9.112C73.4539 9.588 73.5239 9.91933 73.5706 10.106C73.6172 10.1713 73.6546 10.26 73.6826 10.372C73.7012 10.456 73.7386 10.582 73.7946 10.75C73.8132 10.9087 73.8552 11.0907 73.9206 11.296C74.3032 12.5467 74.5412 13.2513 74.6346 13.41C74.6532 13.3727 74.6626 13.256 74.6626 13.06L74.6906 12.864ZM82.9372 11.296C82.9466 11.072 82.9466 10.9367 82.9372 10.89C82.9372 10.8433 82.9372 10.8107 82.9372 10.792L82.9792 10.414C82.9792 10.274 82.9699 10.1667 82.9512 10.092C82.9606 10.0547 82.9652 9.98 82.9652 9.868C82.9839 9.83067 82.9932 9.77933 82.9932 9.714C82.9932 9.63933 83.0166 9.36867 83.0632 8.902C82.8579 8.94867 82.7226 8.98133 82.6572 9L82.0972 9.028C81.8452 9.10267 81.6632 9.14 81.5512 9.14C81.2899 9.21467 81.1359 9.24733 81.0892 9.238C80.8559 9.25667 80.7019 9.238 80.6272 9.182C80.5246 9.06067 80.4732 8.888 80.4732 8.664C80.4359 8.468 80.4312 8.33733 80.4592 8.272C80.5619 8.132 80.6272 8.05267 80.6552 8.034C80.6926 8.006 80.7766 7.978 80.9072 7.95C81.0379 7.922 81.1639 7.85667 81.2852 7.754L82.0412 7.446C82.0412 7.446 82.1486 7.42733 82.3632 7.39C82.5872 7.34333 82.7552 7.292 82.8672 7.236C82.9139 7.236 83.0166 7.222 83.1752 7.194C83.3339 7.166 83.4319 7.15667 83.4692 7.166C83.5066 7.166 83.5719 7.138 83.6652 7.082L84.5612 6.998C84.5706 7.00733 84.6219 7.01667 84.7152 7.026C84.8552 7.04467 85.0279 7.02133 85.2332 6.956C85.3826 6.97467 85.5086 6.97933 85.6112 6.97C85.6579 6.98867 85.7979 6.96067 86.0312 6.886C86.0872 6.886 86.1386 6.88133 86.1852 6.872C86.2319 6.85333 86.3392 6.82533 86.5072 6.788C86.6099 6.788 86.6939 6.81133 86.7592 6.858C86.8059 6.84867 86.8572 6.87667 86.9132 6.942C86.9786 7.00733 87.0439 7.096 87.1092 7.208C87.2586 7.432 87.3472 7.56267 87.3752 7.6C87.4966 7.796 87.5759 7.99667 87.6132 8.202C87.6506 8.27667 87.6599 8.328 87.6412 8.356C87.6226 8.384 87.5572 8.40733 87.4452 8.426C87.3986 8.38867 87.3426 8.37467 87.2772 8.384C87.2119 8.384 87.0112 8.40733 86.6752 8.454L86.4372 8.44C86.2132 8.496 85.9286 8.524 85.5832 8.524L84.7152 8.552L84.6312 8.594C84.5752 9.28467 84.5566 9.73267 84.5752 9.938C84.6219 10.2927 84.6359 10.4793 84.6172 10.498V10.778C84.7106 12.458 84.7619 13.3307 84.7712 13.396C84.7899 13.4613 84.7992 13.592 84.7992 13.788L84.8972 14.922C84.9532 14.9873 84.9859 15.0947 84.9952 15.244C85.0046 15.44 84.9532 15.5567 84.8412 15.594C84.6452 15.6593 84.4866 15.72 84.3652 15.776C84.2439 15.8227 84.0526 15.8273 83.7912 15.79C83.7912 15.762 83.6839 15.7153 83.4692 15.65C83.4692 15.6407 83.4086 15.5707 83.2872 15.44C83.2499 15.3933 83.2312 15.328 83.2312 15.244C83.1752 15.02 83.1472 14.7213 83.1472 14.348C83.0912 14.0867 83.0819 13.8907 83.1192 13.76C83.1099 13.7507 83.0772 13.592 83.0212 13.284V12.766C83.0212 12.6913 82.9979 12.6167 82.9512 12.542L82.9372 12.108V11.296ZM91.7091 8.72C91.6811 8.67333 91.7184 8.33267 91.8211 7.698C91.8304 7.54867 91.8351 7.43667 91.8351 7.362C91.9191 7.10067 92.0078 6.92333 92.1011 6.83C92.2038 6.72733 92.3951 6.69933 92.6751 6.746C92.9644 6.79267 93.1511 6.90467 93.2351 7.082C93.2444 7.138 93.2491 7.264 93.2491 7.46C93.2491 7.656 93.2444 7.78667 93.2351 7.852V7.936C93.1604 8.71067 93.1231 9.14 93.1231 9.224L93.0811 9.658C93.0811 9.98467 93.0858 10.204 93.0951 10.316C93.0578 11.1747 93.1184 12.01 93.2771 12.822C93.3611 13.3073 93.4544 13.55 93.5571 13.55C93.6038 13.5593 93.6551 13.5033 93.7111 13.382C93.7018 13.3353 93.7111 13.2607 93.7391 13.158C93.7858 12.9713 93.8231 12.7707 93.8511 12.556C93.9164 12.22 93.9818 11.9027 94.0471 11.604C94.1124 11.3053 94.1498 11.0907 94.1591 10.96C94.1591 10.9413 94.1824 10.7593 94.2291 10.414C94.2851 10.2087 94.3271 9.896 94.3551 9.476L94.3411 9.364C94.3598 8.86 94.3691 8.53333 94.3691 8.384C94.3691 8.23467 94.3551 8.034 94.3271 7.782V7.264C94.3458 7.13333 94.3831 7.026 94.4391 6.942C94.4484 6.942 94.4811 6.928 94.5371 6.9C94.6024 6.872 94.6724 6.844 94.7471 6.816C94.7844 6.77867 94.8731 6.77867 95.0131 6.816C95.1624 6.85333 95.2604 6.886 95.3071 6.914C95.3538 6.942 95.3911 6.97933 95.4191 7.026C95.4564 7.07267 95.4844 7.11467 95.5031 7.152C95.5218 7.18 95.5358 7.22667 95.5451 7.292C95.5638 7.35733 95.5778 7.404 95.5871 7.432C95.6898 8.076 95.7411 8.68267 95.7411 9.252V9.63L95.7271 9.826C95.7458 9.994 95.7458 10.1667 95.7271 10.344C95.7178 10.512 95.7038 10.7733 95.6851 11.128C95.6664 11.4733 95.6384 11.716 95.6011 11.856V11.982C95.5918 12.0193 95.5871 12.08 95.5871 12.164L95.5591 12.402C95.5591 12.4487 95.5451 12.5233 95.5171 12.626C95.4891 12.7193 95.4658 12.808 95.4471 12.892C95.4378 12.9667 95.4284 13.032 95.4191 13.088L95.3351 13.438L95.1531 13.942C95.1158 14.0353 95.0691 14.1147 95.0131 14.18C95.0131 14.2453 94.9244 14.376 94.7471 14.572L94.5371 14.866L94.4251 14.964C94.0611 15.328 93.6551 15.37 93.2071 15.09L92.8571 14.852C92.8104 14.7867 92.7311 14.7027 92.6191 14.6C92.6098 14.572 92.5678 14.5207 92.4931 14.446C92.4184 14.3713 92.3484 14.292 92.2831 14.208C92.2271 14.1147 92.1991 14.054 92.1991 14.026C92.1991 13.9887 92.1618 13.9093 92.0871 13.788C91.9378 13.5453 91.8491 13.3633 91.8211 13.242C91.7464 13.046 91.6998 12.878 91.6811 12.738L91.5271 13.396C91.5271 13.4893 91.4991 13.6013 91.4431 13.732L91.3731 14.012C90.9718 15.0853 90.7711 15.5847 90.7711 15.51C90.6124 15.7247 90.4818 15.86 90.3791 15.916C90.1458 16.056 89.6838 16.0233 88.9931 15.818L88.7691 15.594C88.6664 15.5007 88.6058 15.3887 88.5871 15.258C88.4844 15.062 88.4144 14.9267 88.3771 14.852C88.3491 14.7773 88.3071 14.6093 88.2511 14.348V13.998L88.1391 13.158L88.1531 13.06C88.0878 12.9947 88.0411 12.7427 88.0131 12.304L87.9991 12.206L87.8731 11.296L87.8451 10.862C87.8451 10.8433 87.8358 10.6333 87.8171 10.232V9.826C87.8171 9.658 87.8778 9.21 87.9991 8.482C88.0644 8.23933 88.1064 8.034 88.1251 7.866C88.1438 7.698 88.1718 7.58133 88.2091 7.516C88.2464 7.44133 88.3164 7.35267 88.4191 7.25C88.5218 7.14733 88.5918 7.09133 88.6291 7.082C88.6758 7.06333 88.7178 7.04933 88.7551 7.04C88.8018 7.012 88.8811 6.998 88.9931 6.998C89.1144 6.95133 89.2871 6.956 89.5111 7.012C89.5858 7.00267 89.6838 7.03067 89.8051 7.096C89.9358 7.16133 90.0104 7.25467 90.0291 7.376C90.0478 7.516 90.0291 7.81933 89.9731 8.286V8.384C89.9544 8.47733 89.9311 8.538 89.9031 8.566C89.9498 8.61267 89.9591 8.72933 89.9311 8.916V9.63L89.9031 10.106V10.596C89.8751 10.792 89.8704 11.0253 89.8891 11.296C89.8704 11.4733 89.8704 11.6133 89.8891 11.716L89.8751 11.996V12.192C89.8751 12.2573 89.8844 12.3367 89.9031 12.43C89.8844 12.6353 89.8891 12.9153 89.9171 13.27C89.9451 13.6153 89.9778 13.788 90.0151 13.788L90.3651 13.116L90.4491 12.99C90.4678 12.934 90.4958 12.8173 90.5331 12.64C90.5798 12.584 90.6124 12.4767 90.6311 12.318L91.1071 11.352C91.1911 11.0813 91.2424 10.918 91.2611 10.862C91.2798 10.834 91.3124 10.7453 91.3591 10.596C91.4058 10.5773 91.4338 10.526 91.4431 10.442C91.4618 10.358 91.4711 10.3067 91.4711 10.288C91.4898 10.2133 91.5178 10.1107 91.5551 9.98C91.5924 9.84933 91.6111 9.63933 91.6111 9.35C91.6111 9.06067 91.6438 8.85067 91.7091 8.72ZM101.847 8.3C101.875 8.42133 101.852 8.50533 101.777 8.552C101.703 8.58933 101.623 8.608 101.539 8.608C101.465 8.608 101.259 8.61733 100.923 8.636C100.709 8.68267 100.494 8.74333 100.279 8.818H100.265C100.265 8.986 100.219 9.23333 100.125 9.56C100.125 9.672 100.102 9.854 100.055 10.106C100.055 10.1807 100.041 10.2553 100.013 10.33C99.9853 10.4047 99.9713 10.5213 99.9713 10.68C99.906 11.0627 99.878 11.2727 99.8873 11.31C99.8966 11.3473 99.8966 11.3987 99.8873 11.464C99.878 11.5293 99.8593 11.6273 99.8313 11.758C99.8033 11.8887 99.7893 12.0427 99.7893 12.22C99.7893 12.3973 99.766 12.556 99.7193 12.696V12.85C99.738 13.186 99.724 13.424 99.6773 13.564C99.64 13.704 99.6213 13.8253 99.6213 13.928C99.6213 14.0213 99.598 14.1707 99.5513 14.376C99.5046 14.5813 99.4906 14.824 99.5093 15.104H99.5933C99.8266 15.0853 99.948 15.0807 99.9573 15.09C99.976 15.09 100.041 15.076 100.153 15.048L100.377 15.062H100.517C100.545 15.062 100.606 15.0993 100.699 15.174C100.793 15.2393 100.858 15.3047 100.895 15.37C100.961 15.4353 100.979 15.5007 100.951 15.566C100.933 15.622 100.83 15.72 100.643 15.86L100.377 15.944C100.349 15.972 100.284 16.0047 100.181 16.042C100.079 16.0793 99.99 16.098 99.9153 16.098C99.7006 16.1447 99.5746 16.224 99.5373 16.336C99.5 16.4107 99.276 16.4387 98.8653 16.42H98.3893L98.1233 16.504C97.89 16.5973 97.6846 16.6207 97.5073 16.574C97.33 16.5273 97.2086 16.49 97.1433 16.462C97.0873 16.4433 97.0173 16.3967 96.9333 16.322C96.8493 16.2567 96.812 16.1773 96.8213 16.084C96.84 16 96.8726 15.874 96.9193 15.706C97.078 15.5753 97.19 15.4913 97.2553 15.454C97.7033 15.314 97.988 15.2207 98.1093 15.174C98.1093 14.866 98.1 14.684 98.0813 14.628C98.1093 14.6187 98.142 14.418 98.1793 14.026C98.1886 13.9887 98.1653 13.9 98.1093 13.76V13.676C98.1373 13.4147 98.1326 13.1767 98.0953 12.962C98.0953 12.9527 98.114 12.7893 98.1513 12.472C98.198 12.416 98.198 12.2667 98.1513 12.024C98.1886 11.8467 98.2213 11.7067 98.2493 11.604L98.2633 11.408C98.2633 11.352 98.2913 11.184 98.3473 10.904V10.764L98.3753 10.652C98.5433 9.96133 98.6553 9.45733 98.7113 9.14C98.6366 9.15867 98.59 9.168 98.5713 9.168L98.1093 9.238C97.7546 9.33133 97.442 9.252 97.1713 9C96.938 8.68267 96.9333 8.412 97.1573 8.188C97.2973 8.06667 97.512 7.98267 97.8013 7.936C98.0533 7.852 98.2166 7.79133 98.2913 7.754C98.3846 7.754 98.604 7.65133 98.9493 7.446C99.2946 7.39933 99.4953 7.376 99.5513 7.376L100.209 7.292C100.293 7.28267 100.405 7.292 100.545 7.32C100.685 7.33867 100.769 7.36667 100.797 7.404C100.919 7.432 101.068 7.488 101.245 7.572L101.581 7.88C101.712 8.06667 101.801 8.20667 101.847 8.3ZM105.922 8.426C105.904 8.594 105.894 8.76667 105.894 8.944C105.894 9.28 105.876 9.58333 105.838 9.854C105.801 10.1247 105.778 10.3113 105.768 10.414C105.759 10.5073 105.745 10.6007 105.726 10.694V10.792C105.726 10.96 105.689 11.128 105.614 11.296L105.572 11.926L105.516 13.256V13.956C105.516 14.3107 105.498 14.502 105.46 14.53L105.474 14.894V15.048L105.46 15.216C105.46 15.2533 105.451 15.272 105.432 15.272C105.451 15.384 105.404 15.5053 105.292 15.636C105.19 15.7573 105.059 15.8367 104.9 15.874L104.648 15.916C104.611 15.916 104.56 15.9207 104.494 15.93C104.429 15.93 104.373 15.9207 104.326 15.902C104.28 15.8833 104.233 15.86 104.186 15.832C104.093 15.776 104.028 15.6687 103.99 15.51C103.962 15.4633 103.906 15.1787 103.822 14.656C103.822 14.544 103.813 14.404 103.794 14.236L103.836 13.9V13.634C103.836 13.466 103.855 13.3493 103.892 13.284C103.855 13.228 103.878 13.1067 103.962 12.92C103.897 12.836 103.902 12.6493 103.976 12.36C103.939 12.2387 103.939 12.1593 103.976 12.122C103.995 12.066 104.004 11.9353 104.004 11.73L104.018 11.59C104.018 11.3193 104.046 11.072 104.102 10.848C104.084 10.82 104.084 10.7453 104.102 10.624C104.121 10.5027 104.135 10.358 104.144 10.19V10.092C104.154 9.952 104.158 9.80267 104.158 9.644L104.172 9.518C104.172 9.462 104.182 9.35 104.2 9.182C104.228 9.014 104.252 8.83667 104.27 8.65H104.242C103.253 8.92067 102.646 9.056 102.422 9.056L102.184 9.07C102.044 9.07 101.9 9.04667 101.75 9C101.676 8.96267 101.62 8.86467 101.582 8.706C101.582 8.398 101.648 8.174 101.778 8.034C101.918 7.894 102.175 7.76333 102.548 7.642C102.642 7.63267 103.22 7.43667 104.284 7.054L104.886 6.914C104.998 6.87667 105.176 6.858 105.418 6.858C105.661 6.858 105.862 6.83 106.02 6.774C106.188 6.70867 106.37 6.662 106.566 6.634C106.762 6.59667 106.968 6.55933 107.182 6.522C107.285 6.48467 107.472 6.494 107.742 6.55C107.845 6.55 108.008 6.65733 108.232 6.872L108.316 7.068C108.316 7.124 108.33 7.166 108.358 7.194C108.396 7.446 108.34 7.60933 108.19 7.684C108.134 7.712 108.036 7.74933 107.896 7.796C107.71 7.796 107.243 7.88933 106.496 8.076C106.459 8.076 106.272 8.104 105.936 8.16L105.922 8.342V8.426ZM110.704 11.296C110.714 11.072 110.714 10.9367 110.704 10.89C110.704 10.8433 110.704 10.8107 110.704 10.792L110.746 10.414C110.746 10.274 110.737 10.1667 110.718 10.092C110.728 10.0547 110.732 9.98 110.732 9.868C110.751 9.83067 110.76 9.77933 110.76 9.714C110.76 9.63933 110.784 9.36867 110.83 8.902C110.625 8.94867 110.49 8.98133 110.424 9L109.864 9.028C109.612 9.10267 109.43 9.14 109.318 9.14C109.057 9.21467 108.903 9.24733 108.856 9.238C108.623 9.25667 108.469 9.238 108.394 9.182C108.292 9.06067 108.24 8.888 108.24 8.664C108.203 8.468 108.198 8.33733 108.226 8.272C108.329 8.132 108.394 8.05267 108.422 8.034C108.46 8.006 108.544 7.978 108.674 7.95C108.805 7.922 108.931 7.85667 109.052 7.754L109.808 7.446C109.808 7.446 109.916 7.42733 110.13 7.39C110.354 7.34333 110.522 7.292 110.634 7.236C110.681 7.236 110.784 7.222 110.942 7.194C111.101 7.166 111.199 7.15667 111.236 7.166C111.274 7.166 111.339 7.138 111.432 7.082L112.328 6.998C112.338 7.00733 112.389 7.01667 112.482 7.026C112.622 7.04467 112.795 7.02133 113 6.956C113.15 6.97467 113.276 6.97933 113.378 6.97C113.425 6.98867 113.565 6.96067 113.798 6.886C113.854 6.886 113.906 6.88133 113.952 6.872C113.999 6.85333 114.106 6.82533 114.274 6.788C114.377 6.788 114.461 6.81133 114.526 6.858C114.573 6.84867 114.624 6.87667 114.68 6.942C114.746 7.00733 114.811 7.096 114.876 7.208C115.026 7.432 115.114 7.56267 115.142 7.6C115.264 7.796 115.343 7.99667 115.38 8.202C115.418 8.27667 115.427 8.328 115.408 8.356C115.39 8.384 115.324 8.40733 115.212 8.426C115.166 8.38867 115.11 8.37467 115.044 8.384C114.979 8.384 114.778 8.40733 114.442 8.454L114.204 8.44C113.98 8.496 113.696 8.524 113.35 8.524L112.482 8.552L112.398 8.594C112.342 9.28467 112.324 9.73267 112.342 9.938C112.389 10.2927 112.403 10.4793 112.384 10.498V10.778C112.478 12.458 112.529 13.3307 112.538 13.396C112.557 13.4613 112.566 13.592 112.566 13.788L112.664 14.922C112.72 14.9873 112.753 15.0947 112.762 15.244C112.772 15.44 112.72 15.5567 112.608 15.594C112.412 15.6593 112.254 15.72 112.132 15.776C112.011 15.8227 111.82 15.8273 111.558 15.79C111.558 15.762 111.451 15.7153 111.236 15.65C111.236 15.6407 111.176 15.5707 111.054 15.44C111.017 15.3933 110.998 15.328 110.998 15.244C110.942 15.02 110.914 14.7213 110.914 14.348C110.858 14.0867 110.849 13.8907 110.886 13.76C110.877 13.7507 110.844 13.592 110.788 13.284V12.766C110.788 12.6913 110.765 12.6167 110.718 12.542L110.704 12.108V11.296ZM118.216 7.334L118.468 7.222C118.496 7.222 118.538 7.208 118.594 7.18C118.799 7.08667 119.065 7.01667 119.392 6.97C119.448 6.89533 119.555 6.91867 119.714 7.04C119.789 7.07733 119.835 7.096 119.854 7.096C119.882 7.096 119.924 7.13333 119.98 7.208C120.045 7.27333 120.087 7.32933 120.106 7.376L120.26 7.502C120.372 7.56733 120.437 7.62333 120.456 7.67C120.475 7.70733 120.475 7.782 120.456 7.894C120.447 7.99667 120.405 8.09467 120.33 8.188C120.265 8.272 120.195 8.328 120.12 8.356C119.803 8.47733 119.588 8.538 119.476 8.538C119.364 8.538 119.229 8.58467 119.07 8.678C118.911 8.77133 118.781 8.82733 118.678 8.846C118.575 8.86467 118.496 8.888 118.44 8.916C118.393 8.944 118.323 8.99067 118.23 9.056C118.006 9.18667 117.787 9.27067 117.572 9.308C117.591 9.308 117.581 9.35467 117.544 9.448C117.507 9.54133 117.474 9.66733 117.446 9.826C117.418 9.97533 117.367 10.1527 117.292 10.358L117.124 11.114C117.087 11.282 117.082 11.366 117.11 11.366C117.138 11.366 117.161 11.3473 117.18 11.31C117.693 11.1047 117.997 10.9507 118.09 10.848C118.193 10.736 118.342 10.6893 118.538 10.708L118.706 10.666C118.734 10.638 118.795 10.624 118.888 10.624C119.056 10.5773 119.275 10.6893 119.546 10.96L119.504 11.114C119.457 11.2073 119.383 11.31 119.28 11.422C119.177 11.534 119.093 11.604 119.028 11.632C118.972 11.66 118.93 11.6833 118.902 11.702C118.874 11.7113 118.855 11.716 118.846 11.716H118.818C118.762 11.772 118.701 11.8187 118.636 11.856C118.561 11.9307 118.487 11.9867 118.412 12.024C118.337 12.0613 118.267 12.1033 118.202 12.15C118.137 12.1873 118.085 12.2153 118.048 12.234C118.02 12.2527 117.983 12.276 117.936 12.304C117.889 12.332 117.833 12.3647 117.768 12.402C117.712 12.4393 117.675 12.458 117.656 12.458C117.637 12.458 117.535 12.542 117.348 12.71C117.292 12.71 117.213 12.6867 117.11 12.64C117.007 12.584 116.933 12.528 116.886 12.472C116.83 12.472 116.821 12.598 116.858 12.85C116.858 12.8967 116.839 13.0133 116.802 13.2C116.765 13.5453 116.76 13.8907 116.788 14.236C116.816 14.5813 116.858 14.7913 116.914 14.866C116.97 14.9407 117.031 14.978 117.096 14.978C117.236 14.95 117.343 14.9127 117.418 14.866C117.493 14.81 117.563 14.7773 117.628 14.768C117.693 14.7587 117.763 14.7213 117.838 14.656C117.922 14.5907 117.983 14.558 118.02 14.558C118.067 14.558 118.202 14.446 118.426 14.222C118.454 14.1753 118.515 14.1287 118.608 14.082C118.711 14.026 118.762 13.984 118.762 13.956C118.781 13.9187 118.846 13.8673 118.958 13.802C119.079 13.7273 119.219 13.6807 119.378 13.662C119.546 13.634 119.672 13.6433 119.756 13.69C119.905 13.774 120.087 13.9233 120.302 14.138C120.349 14.2127 120.344 14.376 120.288 14.628C120.241 14.8707 120.162 15.048 120.05 15.16L119.924 15.286C119.765 15.4727 119.532 15.6687 119.224 15.874C118.981 16.0047 118.855 16.07 118.846 16.07C118.79 16.1167 118.757 16.1447 118.748 16.154C118.701 16.238 118.659 16.2707 118.622 16.252C118.594 16.2333 118.51 16.2333 118.37 16.252C118.239 16.2707 118.123 16.2707 118.02 16.252C117.964 16.224 117.894 16.21 117.81 16.21C117.726 16.2567 117.413 16.098 116.872 15.734C116.797 15.678 116.746 15.65 116.718 15.65C116.69 15.65 116.629 15.6407 116.536 15.622C116.461 15.5847 116.373 15.5427 116.27 15.496C115.962 15.3187 115.78 15.1973 115.724 15.132C115.668 15.0667 115.603 15.0107 115.528 14.964C115.453 14.9173 115.411 14.866 115.402 14.81C115.393 14.754 115.365 14.6933 115.318 14.628C115.318 14.6093 115.29 14.5253 115.234 14.376C115.159 14.2547 115.136 14.166 115.164 14.11C115.173 14.054 115.169 14.012 115.15 13.984C115.131 13.9467 115.113 13.676 115.094 13.172C115.075 12.6587 115.085 12.3787 115.122 12.332C115.159 12.2853 115.178 12.1733 115.178 11.996C115.159 11.828 115.183 11.702 115.248 11.618C115.323 11.534 115.355 11.4267 115.346 11.296C115.337 11.156 115.351 11.0487 115.388 10.974C115.425 10.9367 115.458 10.792 115.486 10.54L115.542 10.288C115.654 10.064 115.71 9.91467 115.71 9.84C115.71 9.756 115.729 9.658 115.766 9.546C115.775 9.52733 115.831 9.36867 115.934 9.07L116.032 8.874L116.074 8.706C116.307 8.23 116.452 7.95467 116.508 7.88C116.508 7.84267 116.569 7.67 116.69 7.362C116.681 7.222 116.755 7.124 116.914 7.068C117.073 7.00267 117.217 7.00733 117.348 7.082C117.488 7.15667 117.572 7.208 117.6 7.236C117.628 7.264 117.684 7.30133 117.768 7.348C117.796 7.39467 117.945 7.39 118.216 7.334ZM123.569 9.728C123.569 9.91467 123.504 10.428 123.373 11.268L123.331 11.464C123.369 11.4453 123.443 11.38 123.555 11.268C123.733 11.1093 124.013 10.918 124.395 10.694L124.605 10.54L125.039 10.358L125.515 10.064C125.497 10.0453 125.52 9.99867 125.585 9.924C125.772 9.60667 125.884 9.34067 125.921 9.126C125.921 8.99533 125.903 8.902 125.865 8.846C125.837 8.78067 125.725 8.73867 125.529 8.72C125.501 8.692 125.413 8.664 125.263 8.636C124.89 8.608 124.577 8.64067 124.325 8.734H124.213L124.003 8.79H123.765L123.695 9.168C123.695 9.18667 123.672 9.28 123.625 9.448C123.625 9.52267 123.607 9.616 123.569 9.728ZM121.553 12.682C121.581 12.598 121.628 12.2993 121.693 11.786L121.959 10.218C121.978 10.1807 122.001 10.0827 122.029 9.924C122.029 9.82133 122.039 9.71867 122.057 9.616C122.085 9.504 122.099 9.31267 122.099 9.042L121.931 8.93L121.665 8.804C121.553 8.748 121.437 8.65933 121.315 8.538C121.269 8.51 121.255 8.44 121.273 8.328C121.292 8.20667 121.362 8.11333 121.483 8.048C121.511 8.048 121.609 8.01533 121.777 7.95C121.833 7.95 121.927 7.908 122.057 7.824C122.085 7.824 122.169 7.782 122.309 7.698L122.925 7.474C122.972 7.474 123.047 7.45067 123.149 7.404C123.261 7.35733 123.373 7.32933 123.485 7.32L124.031 7.278C124.311 7.23133 124.554 7.24533 124.759 7.32C124.899 7.32 125.03 7.348 125.151 7.404C125.235 7.404 125.361 7.43667 125.529 7.502C125.651 7.52067 125.777 7.572 125.907 7.656C125.973 7.656 126.033 7.67467 126.089 7.712C126.201 7.796 126.318 7.866 126.439 7.922L126.775 8.216C126.962 8.36533 127.135 8.57067 127.293 8.832C127.471 9.01867 127.466 9.29867 127.279 9.672C127.27 9.728 127.233 9.81667 127.167 9.938C126.887 10.5073 126.374 11.072 125.627 11.632L125.207 11.8L124.507 12.206C124.591 12.3367 124.764 12.584 125.025 12.948L126.145 14.39L126.299 14.656L126.663 15.09C126.691 15.1553 126.771 15.2347 126.901 15.328L127.125 15.566C127.331 15.7433 127.41 15.9393 127.363 16.154C127.326 16.3687 127.195 16.476 126.971 16.476L126.635 16.434L125.963 16.224L125.739 16C125.534 15.8973 125.375 15.79 125.263 15.678C125.161 15.5567 125.011 15.4027 124.815 15.216C124.647 15.104 124.419 14.8753 124.129 14.53C124.129 14.5207 124.101 14.446 124.045 14.306C123.933 14.2127 123.835 14.0027 123.751 13.676C123.742 13.6667 123.728 13.648 123.709 13.62C123.691 13.592 123.658 13.55 123.611 13.494C123.574 13.4287 123.546 13.3727 123.527 13.326C123.471 13.074 123.373 12.8547 123.233 12.668H123.177C123.177 12.724 123.159 12.8033 123.121 12.906V13.186L123.009 13.998L122.813 15.006C122.813 15.034 122.799 15.0947 122.771 15.188C122.753 15.2813 122.743 15.3373 122.743 15.356C122.753 15.3653 122.757 15.4167 122.757 15.51C122.757 15.594 122.748 15.664 122.729 15.72C122.729 15.7947 122.701 15.916 122.645 16.084C122.599 16.252 122.524 16.3593 122.421 16.406C122.328 16.462 122.151 16.4667 121.889 16.42C121.796 16.3827 121.67 16.2473 121.511 16.014C121.437 15.986 121.348 15.832 121.245 15.552C121.264 15.384 121.273 15.2813 121.273 15.244C121.273 15.2067 121.269 15.1553 121.259 15.09C121.269 14.922 121.278 14.782 121.287 14.67V14.572C121.287 14.5533 121.292 14.53 121.301 14.502C121.311 14.4647 121.32 14.4133 121.329 14.348C121.348 14.2733 121.367 14.2127 121.385 14.166C121.404 14.0913 121.413 13.984 121.413 13.844C121.413 13.704 121.446 13.5687 121.511 13.438C121.511 13.3167 121.525 13.0647 121.553 12.682Z"
    fill="black"
  />
</svg>